<svg
    xmlns="http://www.w3.org/2000/svg"
    viewBox="0 0 16 16"
    fill="none"
  >
  <g id="Category=AI, Name=AI_Editing">
  <path
        d="M4.35861 1.54773L4.82754 1.72125L4.82754 1.72124L4.35861 1.54773ZM4.97472 1.54773L4.50579 1.72124L4.50579 1.72125L4.97472 1.54773ZM5.449 2.82945L4.98007 3.00297L4.98007 3.00297L5.449 2.82945ZM5.83713 3.21759L5.66361 3.68651L5.66362 3.68651L5.83713 3.21759ZM7.11887 3.69187L7.2924 3.22294L7.29238 3.22294L7.11887 3.69187ZM7.11887 4.30797L7.29238 4.7769L7.2924 4.77689L7.11887 4.30797ZM5.83713 4.78225L5.66362 4.31333L5.66361 4.31333L5.83713 4.78225ZM5.449 5.17039L4.98007 4.99687L4.98007 4.99687L5.449 5.17039ZM4.97472 6.45211L5.44364 6.62563L5.44365 6.62562L4.97472 6.45211ZM4.35861 6.45211L3.88969 6.62562L3.88969 6.62564L4.35861 6.45211ZM3.88433 5.17039L4.35326 4.99687L4.35326 4.99687L3.88433 5.17039ZM3.4962 4.78225L3.66972 4.31333L3.66972 4.31333L3.4962 4.78225ZM2.21448 4.30797L2.388 3.83905L2.38799 3.83904L2.21448 4.30797ZM2.21448 3.69187L2.04096 3.22294L2.04096 3.22294L2.21448 3.69187ZM3.4962 3.21759L3.66972 3.68651L3.66972 3.68651L3.4962 3.21759ZM3.88433 2.82945L4.35326 3.00297L4.35326 3.00297L3.88433 2.82945ZM9.95616 6.07394C9.7609 5.87868 9.44432 5.87867 9.24905 6.07393C9.05379 6.26919 9.05378 6.58578 9.24904 6.78104L9.95616 6.07394ZM10.2377 7.76973C10.433 7.965 10.7496 7.965 10.9448 7.76974C11.1401 7.57448 11.1401 7.2579 10.9448 7.06264L10.2377 7.76973ZM4 14.6666H3.5C3.5 14.9427 3.72386 15.1666 4 15.1666V14.6666ZM6.57416 14.5161L6.76552 14.978L6.76552 14.978L6.57416 14.5161ZM7.79487 13.5083L8.14842 13.8618L7.79487 13.5083ZM13.2278 8.07532L12.8742 7.72177L13.2278 8.07532ZM13.8629 7.34238L14.3109 7.56439L14.311 7.56437L13.8629 7.34238ZM13.8629 6.17173L14.311 5.94975L14.3109 5.94971L13.8629 6.17173ZM13.2278 5.4388L13.5814 5.08524L13.5813 5.08524L13.2278 5.4388ZM12.4949 4.80366L12.2728 5.25166L12.2729 5.25168L12.4949 4.80366ZM11.3242 4.80366L11.5462 5.25168L11.5462 5.25166L11.3242 4.80366ZM10.5913 5.4388L10.2377 5.08524L10.2377 5.08524L10.5913 5.4388ZM5.15833 10.8717L4.80477 10.5182L4.80477 10.5182L5.15833 10.8717ZM4.15052 12.0925L4.61245 12.2838L4.61246 12.2838L4.15052 12.0925ZM4.35861 1.54773L4.82754 1.72124C4.77228 1.87059 4.56105 1.87059 4.50579 1.72124L4.97472 1.54773L5.44365 1.37422C5.17676 0.652928 4.15657 0.652928 3.88968 1.37422L4.35861 1.54773ZM4.97472 1.54773L4.50579 1.72125L4.98007 3.00297L5.449 2.82945L5.91793 2.65593L5.44365 1.37421L4.97472 1.54773ZM5.449 2.82945L4.98007 3.00297C5.09726 3.31965 5.34694 3.56933 5.66361 3.68651L5.83713 3.21759L6.01065 2.74866C5.96769 2.73276 5.93382 2.69889 5.91793 2.65593L5.449 2.82945ZM5.83713 3.21759L5.66362 3.68651L6.94535 4.16079L7.11887 3.69187L7.29238 3.22294L6.01065 2.74866L5.83713 3.21759ZM7.11887 3.69187L6.94534 4.16079C6.79598 4.10551 6.79598 3.89432 6.94534 3.83905L7.11887 4.30797L7.2924 4.77689C8.01362 4.50999 8.01362 3.48984 7.2924 3.22294L7.11887 3.69187ZM7.11887 4.30797L6.94535 3.83905L5.66362 4.31333L5.83713 4.78225L6.01065 5.25118L7.29238 4.7769L7.11887 4.30797ZM5.83713 4.78225L5.66361 4.31333C5.34694 4.43051 5.09726 4.68019 4.98007 4.99687L5.449 5.17039L5.91793 5.3439C5.93382 5.30094 5.96769 5.26707 6.01065 5.25118L5.83713 4.78225ZM5.449 5.17039L4.98007 4.99687L4.50579 6.27859L4.97472 6.45211L5.44365 6.62562L5.91793 5.3439L5.449 5.17039ZM4.97472 6.45211L4.5058 6.27858C4.56107 6.12921 4.77227 6.12924 4.82753 6.27857L4.35861 6.45211L3.88969 6.62564C4.15659 7.34686 5.17674 7.34689 5.44364 6.62563L4.97472 6.45211ZM4.35861 6.45211L4.82754 6.27859L4.35326 4.99687L3.88433 5.17039L3.41541 5.3439L3.88969 6.62562L4.35861 6.45211ZM3.88433 5.17039L4.35326 4.99687C4.23608 4.68019 3.9864 4.43051 3.66972 4.31333L3.4962 4.78225L3.32268 5.25118C3.36564 5.26707 3.39951 5.30094 3.41541 5.3439L3.88433 5.17039ZM3.4962 4.78225L3.66972 4.31333L2.388 3.83905L2.21448 4.30797L2.04096 4.7769L3.32268 5.25118L3.4962 4.78225ZM2.21448 4.30797L2.38799 3.83904C2.53735 3.89431 2.53732 4.10554 2.388 4.16079L2.21448 3.69187L2.04096 3.22294C1.31969 3.48983 1.31966 4.51001 2.04097 4.7769L2.21448 4.30797ZM2.21448 3.69187L2.388 4.16079L3.66972 3.68651L3.4962 3.21759L3.32268 2.74866L2.04096 3.22294L2.21448 3.69187ZM3.4962 3.21759L3.66972 3.68651C3.9864 3.56933 4.23608 3.31965 4.35326 3.00297L3.88433 2.82945L3.41541 2.65593C3.39951 2.69889 3.36564 2.73276 3.32268 2.74866L3.4962 3.21759ZM3.88433 2.82945L4.35326 3.00297L4.82754 1.72125L4.35861 1.54773L3.88969 1.37421L3.41541 2.65593L3.88433 2.82945ZM9.6026 6.42749L9.24904 6.78104L10.2377 7.76973L10.5913 7.41618L10.9448 7.06264L9.95616 6.07394L9.6026 6.42749ZM4 14.6666V15.1666H4.99839V14.6666V14.1666H4V14.6666ZM4.99839 14.6666V15.1666C5.76584 15.1666 6.28888 15.1754 6.76552 14.978L6.57416 14.5161L6.3828 14.0541C6.13268 14.1577 5.84745 14.1666 4.99839 14.1666V14.6666ZM6.57416 14.5161L6.76552 14.978C7.24212 14.7805 7.6057 14.4045 8.14842 13.8618L7.79487 13.5083L7.44131 13.1547C6.84097 13.755 6.63295 13.9505 6.3828 14.0541L6.57416 14.5161ZM7.79487 13.5083L8.14842 13.8618L13.5814 8.42887L13.2278 8.07532L12.8742 7.72177L7.44131 13.1547L7.79487 13.5083ZM13.2278 8.07532L13.5814 8.42887C13.9122 8.09801 14.1693 7.85031 14.3109 7.56439L13.8629 7.34238L13.4149 7.12038C13.3645 7.22219 13.2622 7.33382 12.8742 7.72177L13.2278 8.07532ZM13.8629 7.34238L14.311 7.56437C14.563 7.05569 14.563 6.45844 14.311 5.94975L13.8629 6.17173L13.4149 6.39371C13.5283 6.62265 13.5283 6.89148 13.4149 7.1204L13.8629 7.34238ZM13.8629 6.17173L14.3109 5.94971C14.1693 5.66382 13.9122 5.41612 13.5814 5.08524L13.2278 5.4388L12.8743 5.79236C13.2622 6.18026 13.3645 6.29195 13.4149 6.39375L13.8629 6.17173ZM13.2278 5.4388L13.5813 5.08524C13.2505 4.75443 13.0028 4.49732 12.7169 4.35564L12.4949 4.80366L12.2729 5.25168C12.3747 5.30212 12.4863 5.4044 12.8743 5.79236L13.2278 5.4388ZM12.4949 4.80366L12.7169 4.35565C12.2082 4.10356 11.6109 4.10356 11.1022 4.35565L11.3242 4.80366L11.5462 5.25166C11.7751 5.13822 12.0439 5.13822 12.2728 5.25166L12.4949 4.80366ZM11.3242 4.80366L11.1022 4.35564C10.8163 4.49732 10.5685 4.75443 10.2377 5.08524L10.5913 5.4388L10.9448 5.79236C11.3328 5.4044 11.4444 5.30212 11.5462 5.25168L11.3242 4.80366ZM10.5913 5.4388L10.2377 5.08524L4.80477 10.5182L5.15833 10.8717L5.51188 11.2253L10.9448 5.79235L10.5913 5.4388ZM5.15833 10.8717L4.80477 10.5182C4.26207 11.0609 3.88601 11.4245 3.68858 11.9011L4.15052 12.0925L4.61246 12.2838C4.71607 12.0336 4.91153 11.8256 5.51188 11.2253L5.15833 10.8717ZM4.15052 12.0925L3.68859 11.9011C3.49115 12.3777 3.5 12.9007 3.5 13.6682H4H4.5C4.5 12.8191 4.50885 12.5339 4.61245 12.2838L4.15052 12.0925ZM4 13.6682H3.5V14.6666H4H4.5V13.6682H4Z"
        fill="currentColor"
      />
  </g>
  </svg>